<?xml version="1.0" standalone="no"?>
<!DOCTYPE svg PUBLIC "-//W3C//DTD SVG 20010904//EN"
 "http://www.w3.org/TR/2001/REC-SVG-20010904/DTD/svg10.dtd">
<svg version="1.0" xmlns="http://www.w3.org/2000/svg"
 width="400.000000pt" height="400.000000pt" viewBox="0 0 400.000000 400.000000"
 preserveAspectRatio="xMidYMid meet">

<g transform="translate(0.000000,400.000000) scale(0.100000,-0.100000)"
fill="#000000" stroke="none">
<path d="M745 3356 c-43 -19 -94 -75 -106 -116 -6 -23 -9 -444 -7 -1251 l3
-1215 24 -36 c39 -56 85 -82 155 -86 55 -3 66 -1 109 28 28 19 57 50 70 74
l22 41 3 1093 3 1093 392 -3 392 -3 63 -34 c71 -38 154 -123 195 -198 14 -27
37 -82 51 -125 56 -166 59 -194 65 -633 l6 -410 24 -42 c14 -24 42 -55 64 -70
34 -24 50 -28 107 -28 57 0 73 4 108 29 25 17 50 47 64 75 21 43 23 61 26 263
5 306 -11 594 -42 743 -85 417 -282 669 -619 793 l-72 27 -535 2 c-429 2 -541
0 -565 -11z"/>
<path d="M3070 3348 c-30 -16 -55 -41 -75 -73 l-30 -48 -5 -811 c-6 -806 -6
-811 -29 -896 -36 -134 -110 -280 -177 -350 -64 -67 -149 -115 -229 -128 -27
-5 -202 -6 -388 -3 l-338 6 0 670 c0 369 -3 689 -8 713 -20 101 -106 168 -206
160 -89 -7 -153 -66 -174 -158 -14 -61 -14 -1559 0 -1620 13 -56 42 -100 87
-131 l36 -24 525 0 c516 0 527 0 604 23 343 99 568 374 663 812 18 79 19 145
19 921 l0 835 -24 36 c-58 84 -164 112 -251 66z"/>
</g>
</svg>
